# xmcd
#
# Track frame offsets: 
#        150
#        18352
#        39150
#        52146
#        72492
#        94451
#        114765
#        133064
#        149618
#        170984
#        188356
#        205177
#
# Disc length: 2965 seconds
#
# Revision: 0
# Processed by: cddbd v1.5.2PL0 Copyright (c) Steve Scherf et al.
# Submitted via: ExactAudioCopyFreeDBPlugin 1.0
#
DISCID=b00b930c
DTITLE=Dr. Octagon - Moosebumps: An Exploration Into Modern Day Horrip
DTITLE=ilation
DYEAR=2018
DGENRE=Hip-Hop
TTITLE0=Octagon Octagon
TTITLE1=Polka Dots
TTITLE2=Black Hole Son
TTITLE3=Power Of The World (S Curls)
TTITLE4=Operation Zero
TTITLE5=Bear Witness IV
TTITLE6=Area 54
TTITLE7=Flying Waterbed
TTITLE8=3030 Meets The Doc Pt.1
TTITLE9=Karma Sutra
TTITLE10=Hollywood Tailswinging
TTITLE11=Aviator Hype
EXTD=
EXTT0=
EXTT1=
EXTT2=
EXTT3=
EXTT4=
EXTT5=
EXTT6=
EXTT7=
EXTT8=
EXTT9=
EXTT10=
EXTT11=
PLAYORDER=
